<?xml version="1.0" encoding="UTF-8" standalone="no"?>
<svg
   xmlns:dc="http://purl.org/dc/elements/1.1/"
   xmlns:cc="http://creativecommons.org/ns#"
   xmlns:rdf="http://www.w3.org/1999/02/22-rdf-syntax-ns#"
   xmlns:svg="http://www.w3.org/2000/svg"
   xmlns="http://www.w3.org/2000/svg"
   viewBox="0 0 421.26666 98.013336"
   height="37"
   width="147"
   xml:space="preserve"
   id="svg2"
   version="1.1"><metadata
     id="metadata8"><rdf:RDF><cc:Work
         rdf:about=""><dc:format>image/svg+xml</dc:format><dc:type
           rdf:resource="http://purl.org/dc/dcmitype/StillImage" /></cc:Work></rdf:RDF></metadata><defs
     id="defs6" /><g
     transform="matrix(1.3333333,0,0,-1.3333333,0,98.013333)"
     id="g10"><g
       transform="scale(0.1)"
       id="g12"><path
         id="path14"
         style="fill:#412522;fill-opacity:1;fill-rule:evenodd;stroke:none"
         d="m 1677.55,222.18 c 8.63,-29.414 45.83,-56.164 93.41,-55.95 62.22,0.274 128.32,61.907 142.34,72.02 -16.9,-37.133 -46,-76.539 -76.5,-109.41 C 1754.08,39.6992 1656.85,0.835938 1533.27,21.8867 1411.91,42.5586 1306.43,117.055 1249.68,226.566 c -26.5,51.161 -40.8,106.153 -57.72,160.887 -2.66,8.602 -5.39,17.238 -8.28,25.852 l -0.46,1.425 c -4.23,12.993 -8.88,25.489 -13.98,37.473 -9.7,23.293 -21.33,45.707 -36.29,65.883 -41.35,58.734 -99.95,99.547 -180.149,121.336 -4.258,1.156 -8.52,2.23 -12.801,3.246 l 3.656,1.566 c 41.164,16.864 90.754,20.18 133.084,5.61 52.4,-18.032 94.44,-58.805 122.84,-105.567 12.75,-20.984 23.87,-42.589 30.04,-66.48 5.14,-19.918 7.69,-40.188 8.86,-60.672 l -1.01,-7.691 3.95,-2.004 0.06,0.515 1.44,0.18 -0.4,7.953 c 0.56,4.152 1.22,8.293 2.13,12.363 3.53,15.93 9.74,33.993 24.45,43.067 12.42,7.68 28.07,10.535 40.95,1.695 26.25,-18.015 26.28,-54.332 14.29,-80.855 -18.24,-40.348 -48.57,-88.817 -25.27,-133.676 18.2,-35.067 63.41,-49.367 89.41,-16.543 13.31,16.793 16.87,44.258 2.96,62.039 -12.3,15.703 -31.11,21.109 -50.13,23.312 52.37,45.672 119.04,-21.98 101.26,-80.16 -21.53,-70.508 -109.77,-68.136 -144.78,-13.98 -3.18,4.707 -4.45,2.289 -3.75,1.086 l 2.66,-5.817 c 16.1,-31.324 43.7,-57.875 72.54,-77.457 95.29,-64.6911 215.3,-83.8122 324.89,-46.793 3.92,1.325 26.1,7.09 27.2,9.239 l -1.64,1.652 c -66.27,21.637 -151.57,76.523 -138.37,157.746 10.25,63.121 85.59,101.442 140.68,63.274 20.23,-14.016 37.87,-37.875 51.69,-71.133 -49.41,30.558 -111.92,11.019 -96.14,-42.957" /><path
         id="path16"
         style="fill:#412522;fill-opacity:1;fill-rule:evenodd;stroke:none"
         d="m 1159.42,379.523 c 13.84,-42.64 23.68,-90.648 23.4,-131.421 -8.42,25.789 -15.79,66.21 -67.33,109.027 -57.38,44.305 -158.256,15.672 -130.572,-41.043 10.937,-22.422 35.132,-37.313 59.922,-33.676 -26.52,-24.379 -52.551,-38.605 -76.82,-42.805 -66.024,-11.468 -118.266,54.981 -101.02,116.571 22.184,79.238 122.648,93.16 191.87,84.926 l 2.2,0.812 c -0.1,2.422 -17.6,17.203 -20.8,19.824 -19.52,16.008 -43.731,28.918 -69.524,28.774 -29.684,-0.176 -56.656,-20.09 -80.973,-34.711 -32.562,-19.571 -80.328,-37.27 -107.332,2.101 -26.078,38.004 0.368,79.582 44.871,89.797 l 0.754,1.039 c -33.039,13.231 -67.558,12.86 -102.234,7.176 -34.406,-5.652 -70.613,-18.121 -98.391,-39.762 l -4.859,-4.164 c -1.133,-0.804 -1.004,-3.527 3.859,-0.59 54.532,34.414 135.586,-0.554 125.477,-73.578 -8.344,-60.265 -97.277,-93.609 -125.598,-30.144 18.196,-5.992 37.532,-9.012 55.289,0.07 20.118,10.277 28.426,36.707 23.422,57.543 -9.797,40.707 -56.836,46.746 -88.09,22.594 -39.984,-30.914 -32.871,-87.641 -33.293,-131.906 -0.273,-29.133 -15.566,-62.051 -46.96,-67.36 -15.411,-2.597 -28.399,6.559 -36.446,18.758 -9.519,14.418 -7.562,33.426 -4.07,49.344 0.898,4.093 2.039,8.117 3.266,12.129 l 3.718,7.043 -1.226,0.765 0.152,0.496 -4.437,-0.164 -2.297,-7.41 c -9.688,-18.074 -20.52,-35.394 -33.559,-51.301 -15.652,-19.089 -34.816,-34.004 -55.215,-47.687 -45.426,-30.481 -100.715,-49.793 -155.84,-44.117 -44.535,4.578 -88.132,28.445 -118.382,61.058 -27.231,29.332 -39.7973,70.309 -44.52,109.809 32.203,-36.27 68.859,-72.16 114.906,-89.469 47.352,-17.793 97.223,-12.906 142.528,8.457 47.609,22.453 85.578,61.192 120.347,99.738 38.367,42.543 74.461,86.434 120.028,121.7 97.539,75.5 224.562,98.73 343.363,66.437 120.966,-32.867 192.846,-109.004 230.416,-224.68" /><path
         id="path18"
         style="fill:#412522;fill-opacity:1;fill-rule:evenodd;stroke:none"
         d="m 1496.8,222.18 c -8.63,-29.414 -45.83,-56.164 -93.41,-55.95 -62.21,0.274 -128.32,61.907 -142.34,72.02 16.9,-37.133 46,-76.539 76.5,-109.41 82.72,-89.1408 179.96,-128.004062 303.53,-106.9533 121.36,20.6719 226.84,95.1683 283.59,204.6793 26.5,51.161 40.8,106.153 57.72,160.887 2.66,8.602 5.4,17.238 8.29,25.852 l 0.46,1.425 c 4.22,12.993 8.87,25.489 13.98,37.473 9.7,23.293 21.32,45.707 36.28,65.883 41.35,58.734 99.95,99.547 180.15,121.336 4.26,1.156 8.52,2.23 12.8,3.246 l -3.66,1.566 c -41.16,16.864 -90.75,20.18 -133.08,5.61 -52.4,-18.032 -94.44,-58.805 -122.84,-105.567 -12.75,-20.984 -23.87,-42.589 -30.04,-66.48 -5.14,-19.918 -7.69,-40.188 -8.86,-60.672 l 1.02,-7.691 -3.96,-2.004 -0.06,0.515 -1.44,0.18 0.41,7.953 c -0.57,4.152 -1.23,8.293 -2.14,12.363 -3.53,15.93 -9.73,33.993 -24.45,43.067 -12.42,7.68 -28.06,10.535 -40.95,1.695 -26.25,-18.015 -26.27,-54.332 -14.29,-80.855 18.24,-40.348 48.57,-88.817 25.28,-133.676 -18.21,-35.067 -63.42,-49.367 -89.41,-16.543 -13.31,16.793 -16.88,44.258 -2.97,62.039 12.3,15.703 31.12,21.109 50.14,23.312 -52.38,45.672 -119.05,-21.98 -101.27,-80.16 21.53,-70.508 109.77,-68.136 144.78,-13.98 3.19,4.707 4.45,2.289 3.75,1.086 l -2.65,-5.817 c -16.11,-31.324 -43.71,-57.875 -72.55,-77.457 -95.28,-64.6911 -215.3,-83.8122 -324.89,-46.793 -3.92,1.325 -26.1,7.09 -27.19,9.239 l 1.64,1.652 c 66.26,21.637 151.56,76.523 138.36,157.746 -10.24,63.121 -85.59,101.442 -140.68,63.274 -20.23,-14.016 -37.87,-37.875 -51.69,-71.133 49.42,30.558 111.92,11.019 96.14,-42.957" /><path
         id="path20"
         style="fill:#412522;fill-opacity:1;fill-rule:evenodd;stroke:none"
         d="m 2014.93,379.523 c -13.84,-42.64 -23.68,-90.648 -23.39,-131.421 8.41,25.789 15.78,66.21 67.32,109.027 57.38,44.305 158.25,15.672 130.58,-41.043 -10.94,-22.422 -35.14,-37.313 -59.93,-33.676 26.52,-24.379 52.55,-38.605 76.82,-42.805 66.03,-11.468 118.27,54.981 101.02,116.571 -22.18,79.238 -122.65,93.16 -191.87,84.926 l -2.19,0.812 c 0.09,2.422 17.59,17.203 20.79,19.824 19.52,16.008 43.73,28.918 69.53,28.774 29.68,-0.176 56.65,-20.09 80.97,-34.711 32.56,-19.571 80.32,-37.27 107.33,2.101 26.08,38.004 -0.37,79.582 -44.87,89.797 l -0.75,1.039 c 33.03,13.231 67.55,12.86 102.23,7.176 34.41,-5.652 70.61,-18.121 98.39,-39.762 l 4.86,-4.164 c 1.13,-0.804 1,-3.527 -3.86,-0.59 -54.53,34.414 -135.59,-0.554 -125.48,-73.578 8.35,-60.265 97.28,-93.609 125.6,-30.144 -18.19,-5.992 -37.53,-9.012 -55.29,0.07 -20.12,10.277 -28.42,36.707 -23.42,57.543 9.8,40.707 56.83,46.746 88.09,22.594 39.99,-30.914 32.87,-87.641 33.29,-131.906 0.28,-29.133 15.57,-62.051 46.96,-67.36 15.41,-2.597 28.4,6.559 36.45,18.758 9.52,14.418 7.56,33.426 4.07,49.344 -0.9,4.093 -2.04,8.117 -3.27,12.129 l -3.71,7.043 1.22,0.765 -0.15,0.496 4.43,-0.164 2.31,-7.41 c 9.68,-18.074 20.51,-35.394 33.55,-51.301 15.66,-19.089 34.82,-34.004 55.22,-47.687 45.42,-30.481 100.71,-49.793 155.83,-44.117 44.54,4.578 88.14,28.445 118.39,61.058 27.23,29.332 39.8,70.309 44.52,109.809 -32.2,-36.27 -68.86,-72.16 -114.91,-89.469 -47.35,-17.793 -97.22,-12.906 -142.53,8.457 -47.6,22.453 -85.57,61.192 -120.34,99.738 -38.37,42.543 -74.46,86.434 -120.03,121.7 -97.54,75.5 -224.56,98.73 -343.36,66.437 -120.97,-32.867 -192.85,-109.004 -230.42,-224.68" /><path
         id="path22"
         style="fill:#412522;fill-opacity:1;fill-rule:evenodd;stroke:none"
         d="m 1461.74,547.188 c 23.25,-9.922 52.06,-6.68 75.59,-0.262 l 2.04,-0.297 -0.1,-0.453 c -16.9,-25.977 -39.48,-43.621 -64.75,-48.617 -27.86,-5.512 -54.85,9.824 -79.25,26.328 -13.23,8.949 -26.08,18.742 -39.15,28.09 -7.34,5.253 -15.07,9.324 -23.44,9.878 -8.64,0.583 -17.44,-3.82 -24.89,-9.496 -18.9,-14.394 -15.53,-43.152 -11.04,-67.648 1.32,-7.227 1.88,-7.305 -4.32,-2.508 -18.68,14.817 -32.87,37.66 -37.45,67.332 -5.36,34.672 0.31,71.524 -9.08,105.195 -4.24,15.176 -12.96,30.293 -24.1,36.711 -10.35,5.977 -20.82,-1.402 -27.71,-11.976 -14.32,-22.016 -14.72,-56.879 -3.66,-81.203 1.4,-2.489 0.86,-6.782 -1.26,-3.078 -21.62,37.523 -51.43,69.476 -85.92,80.851 -17.21,5.668 -35.24,4.711 -51.83,-3.867 -16.99,-8.801 -28.95,-27.184 -39.78,-46.723 23.76,12.5 49.13,24.082 74.76,16.879 13.37,-3.758 25.3,-13.386 35.64,-25.265 11.75,-13.481 23.05,-27.684 34.31,-41.907 22.03,-27.816 44.19,-55.523 69.62,-77.515 24.56,-21.227 52.25,-36.371 80.08,-47.438 53.7,-21.34 112.12,-23.945 165.19,2.164 26.37,12.973 51.51,33.297 71.79,59.797 14.94,19.516 33.34,50.754 43.94,88.254 10.61,-37.492 29,-68.723 43.95,-88.238 20.28,-26.504 45.42,-46.821 71.79,-59.797 53.06,-26.109 111.48,-23.504 165.18,-2.164 27.84,11.062 55.54,26.215 80.08,47.445 25.44,21.992 47.6,49.699 69.62,77.508 11.27,14.223 22.56,28.434 34.31,41.914 10.35,11.871 22.27,21.508 35.65,25.258 25.62,7.199 50.99,-4.375 74.76,-16.871 -10.83,19.523 -22.79,37.922 -39.78,46.715 -16.59,8.586 -34.62,9.535 -51.83,3.867 -34.5,-11.367 -64.3,-43.324 -85.93,-80.852 -2.12,-3.703 -2.65,0.59 -1.25,3.078 11.06,24.325 10.66,59.188 -3.67,81.196 -6.89,10.582 -17.35,17.961 -27.7,11.984 -11.14,-6.418 -19.86,-21.531 -24.1,-36.703 -9.4,-33.68 -3.73,-70.531 -9.08,-105.195 -4.58,-29.68 -18.77,-52.516 -37.46,-67.336 -6.2,-4.801 -5.64,-4.723 -4.32,2.504 4.5,24.503 7.86,53.257 -11.03,67.66 -7.46,5.675 -16.25,10.066 -24.89,9.488 -8.37,-0.566 -16.1,-4.629 -23.45,-9.883 -13.07,-9.347 -25.91,-19.14 -39.14,-28.082 -24.41,-16.512 -51.39,-31.848 -79.25,-26.336 -25.27,4.992 -47.86,22.641 -64.76,48.625 l -0.09,0.446 2.05,0.296 c 23.51,-6.41 52.33,-9.66 75.58,0.25 19.96,8.512 39.24,27.512 48.14,54.039 6.63,19.758 8.29,43.45 2.53,64.032 -6.59,23.562 -22.65,41.25 -41.43,42.996 -19.15,1.785 -36,-12.934 -50.87,-27.668 -1.47,-1.457 -4.79,-3.5 -1.79,-5.121 l 3.87,-2.153 c 2.6,-1.515 5.19,-3.089 7.67,-4.945 4.34,-3.25 8.76,-6.984 11.99,-12.191 7.01,-11.297 7.5,-27.5 1.5,-39.95 -5.38,-11.156 -14.37,-18.343 -23.98,-20.511 -33.15,-7.524 -67.99,45.945 -76.67,95.996 -2.24,13.523 -4.94,29.633 -6.2,43.347 -1.25,-13.894 -4.02,-29.808 -6.23,-43.558 -8.74,-49.996 -43.52,-103.316 -76.63,-95.813 -9.61,2.18 -18.6,9.368 -23.98,20.524 -6.01,12.445 -5.51,28.644 1.5,39.949 3.22,5.199 7.65,8.941 11.99,12.191 2.47,1.856 5.06,3.422 7.66,4.957 l 3.88,2.145 c 3,1.617 -0.32,3.664 -1.79,5.117 -14.87,14.727 -31.72,29.453 -50.87,27.668 -18.79,-1.754 -34.84,-19.43 -41.43,-42.996 -5.77,-20.574 -4.1,-44.273 2.53,-64.039 8.9,-26.527 28.17,-45.519 48.14,-54.019" /><path
         id="path24"
         style="fill:#412522;fill-opacity:1;fill-rule:evenodd;stroke:none"
         d="m 1349.41,76.7227 c -49.88,57.1093 -118.18,92.9453 -193.06,106.2383 -87.68,15.57 -193.123,-14.242 -267.42,48.508 -5.555,4.691 -5.246,7.476 -4.461,-4.352 6.773,-101.879 -151.883,-114.863 -213.961,-76.254 -32.356,20.125 -55.844,61.832 -42.375,100.075 8.355,23.726 33.043,44.574 58.75,32.914 23.539,-10.68 26.66,-45.664 -0.102,-55.196 -7.179,-2.554 -9.371,-1.461 6.391,-5.004 31.855,-7.168 65.648,4.176 72.406,36.922 7.633,36.961 -18.34,70.551 -52.266,82.024 -70.035,23.683 -146.156,-40.239 -135.57,-113.219 12.578,-86.711 108.238,-120.18 184.629,-114.004 86.051,6.949 169.934,30.453 256.169,33.039 76.61,2.297 155.15,-5.937 228.76,-27.781 36.94,-10.965 75.79,-29.3791 105.29,-55.0002 12.91,-12.25 5.87,0.6484 -3.18,11.0899" /><path
         id="path26"
         style="fill:#412522;fill-opacity:1;fill-rule:evenodd;stroke:none"
         d="m 1821.36,65.6328 c 29.49,25.6211 68.34,44.0352 105.29,55.0002 73.6,21.844 152.14,30.078 228.75,27.781 86.24,-2.586 170.12,-26.09 256.17,-33.039 76.39,-6.176 172.05,27.293 184.63,114.004 10.59,72.98 -65.54,136.902 -135.57,113.219 -33.93,-11.473 -59.9,-45.063 -52.27,-82.024 6.76,-32.746 40.56,-44.09 72.41,-36.922 15.76,3.543 13.57,2.45 6.39,5.004 -26.76,9.532 -23.64,44.516 -0.1,55.196 25.71,11.66 50.39,-9.188 58.75,-32.914 13.47,-38.243 -10.02,-79.95 -42.37,-100.075 -62.08,-38.609 -220.74,-25.625 -213.97,76.254 0.79,11.828 1.1,9.043 -4.46,4.352 -74.29,-62.75 -179.73,-32.938 -267.42,-48.508 -74.88,-13.293 -143.18,-49.129 -193.06,-106.2383 -9.04,-10.4415 -16.09,-23.3399 -3.17,-11.0899" /><path
         id="path28"
         style="fill:#412522;fill-opacity:1;fill-rule:nonzero;stroke:none"
         d="m 0,23.9922 c 0,0 49.3672,1.7266 135.762,4.75 86.39,2.6758 209.808,6.1484 357.91,8.9726 74.051,1.4922 154.273,3.1055 239.121,4.1329 84.852,1.1679 174.328,2.6562 266.891,3.2304 92.566,0.625 188.216,1.9727 285.406,2.0703 97.19,0.2774 195.92,0.5547 294.66,0.836 98.73,-0.2735 197.47,-0.543 294.66,-0.8125 97.19,-0.0117 192.84,-1.4297 285.4,-2.0391 92.57,-0.5859 182.04,-2.0156 266.89,-3.2187 84.85,-1.0352 165.07,-2.6172 239.12,-4.1368 148.11,-2.8242 271.52,-6.3203 357.92,-9.0078 86.39,-3.039 135.76,-4.7773 135.76,-4.7773 0,0 -49.37,-1.7383 -135.76,-4.7774 -86.4,-2.6875 -209.81,-6.1875 -357.92,-9.0078 C 2591.77,8.6875 2511.55,7.10547 2426.7,6.07031 2341.85,4.86328 2252.38,3.4375 2159.81,2.85156 2067.25,2.24219 1971.6,0.820312 1874.41,0.8125 1777.22,0.542969 1678.48,0.273438 1579.75,0 1481.01,0.28125 1382.28,0.558594 1285.09,0.835938 1187.9,0.933594 1092.25,2.28125 999.684,2.90625 907.121,3.48047 817.645,4.96875 732.793,6.13672 647.945,7.16016 567.723,8.77734 493.672,10.2695 345.57,13.0938 222.152,16.5664 135.762,19.2422 49.3672,22.2656 0,23.9922 0,23.9922" /></g></g></svg>