<?xml version="1.0" encoding="UTF-8" standalone="no"?>
<svg
   xmlns:dc="http://purl.org/dc/elements/1.1/"
   xmlns:cc="http://creativecommons.org/ns#"
   xmlns:rdf="http://www.w3.org/1999/02/22-rdf-syntax-ns#"
   xmlns:svg="http://www.w3.org/2000/svg"
   xmlns="http://www.w3.org/2000/svg"
   viewBox="0 0 3023.6799 3023.6799"
   height="183"
   width="169"
   xml:space="preserve"
   id="svg2"
   version="1.1"><metadata
     id="metadata8"><rdf:RDF><cc:Work
         rdf:about=""><dc:format>image/svg+xml</dc:format><dc:type
           rdf:resource="http://purl.org/dc/dcmitype/StillImage" /></cc:Work></rdf:RDF></metadata><defs
     id="defs6" /><g
     transform="matrix(1.3333333,0,0,-1.3333333,0,3023.68)"
     id="g10"><g
       transform="scale(0.154601)"
       id="g12"><path
         id="path14"
         style="fill:#d1c9bc;fill-opacity:1;fill-rule:evenodd;stroke:none"
         d="m 9456.65,13051.9 c -414.1,300.9 -911.31,526.5 -1525.15,627.3 -204.07,33.5 -449.93,56.1 -691,44.8 -219.98,-10.2 -422.83,-28.9 -613.52,-67.2 -555.76,-111.5 -1010.75,-329.4 -1397.59,-606.6 -7.65,-5.5 -22.2,-9 -18.96,-17.2 373.75,5.3 664.17,-63.2 949.54,-141.3 40.82,-11.2 82.78,-31 127.52,-25.9 70.57,47.7 143.8,95.3 224.04,141.3 77.16,44.3 175.29,96.6 284.34,86.2 48.06,-3.6 38.1,-41 37.91,-43.1 -16.24,-96.6 -68.12,-145.7 -80.99,-236.1 -5.95,-41.7 13.98,-87.3 25.87,-130.9 35.45,-130.6 60.42,-249.8 86.16,-391.2 8.28,-45.6 15.01,-93.2 18.95,-141.3 3.82,-47.3 9.38,-101.2 6.86,-151.7 -4.66,-93.3 -25.35,-187.9 -46.51,-274 -20.82,-84.7 -55.23,-165.5 -93.07,-224 -39.33,-60.9 -95.73,-117.9 -175.75,-144.8 -44.95,-15.1 -87.58,-19.2 -129.26,0 -35.17,16.3 -68.38,49.5 -70.66,91.4 -1.4,25.6 8.62,50.4 15.51,74.1 20.16,69 39.64,142.6 51.7,217.1 19.99,123.4 -6.87,216.4 -44.8,299.8 -38.82,85.4 -83.11,154.3 -143.03,215.5 -60.7,61.9 -126.6,109.8 -201.63,156.8 -143.56,89.9 -310.96,175.6 -503.2,213.7 -192.73,38.2 -466.4,34.8 -641.07,-22.4 -171.07,-56 -329.87,-161.2 -425.66,-291.3 -100.42,-136.3 -190.06,-286.2 -270.56,-446.3 -160.74,-319.7 -280.43,-678.1 -317.08,-1118.4 -39.6,-475.5 36.17,-911.7 160.26,-1252.87 16.11,-44.3 32.54,-87.54 48.25,-130.97 15.32,-42.32 37.05,-82.28 56.88,-122.36 39.58,-80.06 77.46,-159.08 124.07,-234.36 47.93,-77.43 90,-150.2 143.03,-215.42 53.07,-65.24 127.26,-116.02 208.52,-151.65 88.32,-38.71 177.43,-52.14 303.31,-55.14 362.65,-8.66 650.26,66.63 899.56,174.05 164.22,70.76 299.89,178.4 377.4,339.49 41.11,85.42 63.59,190.67 43.09,301.58 -13.42,72.54 -44.75,135.79 -75.83,193.01 -9.98,18.38 -26.68,43.8 -24.13,67.21 2.39,21.92 27.83,37.34 46.53,41.35 72.09,15.45 149.59,-0.25 194.74,-22.39 58.9,-28.92 91.53,-57.22 125.81,-99.96 102.07,-127.4 149.93,-305.75 172.31,-503.2 21.09,-185.59 -27.68,-352.91 -93.07,-463.58 -13.07,-22.18 -40.17,-52.57 -39.59,-74.09 0.26,-11.79 11.77,-26.03 17.21,-41.36 34.28,-96.64 44.11,-252.07 18.95,-367.08 -20.12,-92.04 -57.76,-182.41 -125.81,-230.92 -28.67,-20.43 -101.02,-54.91 -122.34,-6.85 -4.39,9.83 -3.27,22.96 -5.17,32.73 -14.4,73.61 -50.23,127.55 -96.51,168.88 -49.76,44.38 -119.37,91.66 -186.12,117.17 -10.11,3.87 -15.52,5.47 -27.57,5.17 -90.71,-2.19 -181.8,-14.51 -274,-22.4 -278.18,-23.81 -587.96,-14.04 -861.65,8.62 -2.36,-4.87 4.54,-9.79 6.88,-12.05 4.43,-4.33 9.64,-8.35 13.8,-12.1 286.14,-257.76 622.06,-480.65 1004.68,-639.32 397.45,-164.81 857.12,-282.66 1414.81,-282.6 558.73,0 1013.77,116.3 1414.87,282.6 345.92,143.4 653.36,337.9 918.49,565.26 29.37,25.1 69.47,55.76 99.94,86.16 5.49,5.44 12.74,9.25 5.17,12.05 -10.74,3.97 -49.81,-3.64 -68.89,-5.19 -159.51,-12.68 -340.42,-15.53 -508.4,-15.53 -156.66,0 -286.03,13.91 -423.93,24.16 -45.73,3.4 -93.34,11.39 -139.59,10.34 -24.97,-0.57 -45.79,-16.06 -67.2,-27.58 -102.65,-55.17 -196.51,-123.8 -229.17,-243.01 -5.18,-18.63 -5.44,-48.12 -17.27,-62.03 -30.86,-36.16 -86.03,-4.01 -115.46,17.27 -66.3,47.87 -108.73,139.07 -127.49,229.17 -25.23,120.63 -13.39,272.37 20.63,368.8 6.02,16.97 17.79,29.18 17.28,43.08 -0.78,20.56 -29.31,55.25 -41.4,75.84 -43.79,74.55 -74,158.73 -87.84,263.65 -20.12,151.83 7.83,290.02 37.9,418.77 28.46,122.24 83.96,229.19 156.79,311.92 31.83,36.11 87.45,62.56 149.94,84.44 54.52,12.36 155.04,25.1 191.26,-27.57 2.59,-32.35 -10.87,-51.44 -24.12,-75.83 -31.89,-58.71 -62.29,-120.02 -75.81,-193.01 -21.15,-114.19 3.43,-219.2 43.08,-301.58 78.65,-163.47 213.71,-269.11 377.42,-341.22 243.79,-107.41 543.72,-180.87 899.54,-172.32 60.28,1.45 115.26,2.27 167.14,12.06 144.46,27.26 267.06,99.27 344.66,194.73 53.1,65.25 95.6,138.8 143,215.42 47,75.83 84.5,154.25 124.2,234.36 19.8,40.17 40.8,79.84 56.8,122.36 16.3,43.25 32.2,87.72 48.3,132.69 124,346.41 199.7,778.25 158.5,1256.25 -37.5,436.5 -157.7,796.4 -318.8,1116.7 -80.7,160.6 -171.6,309.1 -272.3,444.7 -99.6,134.1 -251.18,234.5 -427.37,291.2 -129.95,41.8 -317.53,60.5 -485.96,41.3 -54.53,-6.2 -105.37,-12.5 -153.37,-22.4 -199.86,-41.1 -361.05,-123.3 -504.97,-213.6 -72.9,-45.8 -142.11,-97.7 -199.87,-158.6 -58.15,-61.2 -101.04,-131.7 -141.33,-217.1 -38.43,-81.5 -63.84,-189.3 -43.08,-301.6 12.55,-67.9 34.47,-150.3 53.43,-215.4 7.18,-24.7 15.71,-48.7 12.09,-75.8 -6.6,-49 -50.13,-77.8 -86.22,-89.6 -43.21,-14.2 -84.28,-6.4 -127.49,10.3 -75.03,29 -129.69,89.9 -167.14,151.6 -38.16,62.9 -65.85,140.6 -87.9,225.8 -21.67,83.6 -45.22,184 -44.83,274 0.84,199.7 43.27,384 80.98,548 9.51,41.3 21.22,83 32.8,125.8 11.38,42.4 31.31,85.6 24.13,131 -13.78,87 -64.17,133.5 -81.05,234.3 -5.05,34.8 31.69,42.9 41.39,43.1 116.56,5.6 207.96,-46.9 286.03,-91.3 53.43,-30.4 115.91,-68.8 168.89,-105.1 20.76,-14.3 41.78,-33.7 65.52,-34.5 38.42,-1.2 83.38,20.1 122.32,31 42.3,11.9 85.38,21.7 122.38,31 248.44,62.6 508.92,113.6 818.55,106.9 -3.68,9.9 -14.55,13.2 -22.38,18.9 m -2173.07,1049.5 h 120.63 c 0.26,-2.1 2.72,-1.7 5.18,-1.7 300.06,0 576.7,-41.4 827.16,-98.2 254.07,-57.6 484.15,-134.6 699.67,-227.5 648.31,-279.4 1162.38,-691.6 1557.88,-1223.5 263.1,-353.9 471.5,-767.2 591.1,-1263.2 60.4,-250.8 100.7,-530.9 94.7,-832.4 -11.7,-597.96 -152.6,-1081.16 -360.1,-1494.07 -208.3,-414.4 -479.2,-757.49 -797.9,-1056.37 -319.91,-299.99 -697.46,-538.73 -1133.94,-720.36 -437.51,-182.02 -942.23,-306.73 -1547.53,-306.73 -606.46,0 -1108.32,126.65 -1544.08,308.47 -435.98,181.89 -811.81,421.86 -1133.93,720.31 -319.91,296.45 -587.17,642.47 -796.16,1058.14 -101.78,202.42 -186.9,427.21 -249.88,677.25 -62.31,247.35 -106.96,521.56 -108.57,818.56 -3.29,606.7 143.18,1093.5 339.49,1514.8 98.28,210.9 218.74,401.4 348.11,579 128.88,176.9 279.93,340.3 437.71,489.4 321.15,303.6 689.37,542.5 1121.88,732.4 429.77,188.8 924.38,309.1 1528.58,325.7" /><path
         id="path16"
         style="fill:#d1c9bc;fill-opacity:1;fill-rule:evenodd;stroke:none"
         d="m 9144.75,9619.13 c -16.68,-24.68 -36.28,-46.98 -50,-70.65 -8.79,-15.2 -14.81,-36.08 -24.12,-60.33 -8.28,-21.55 -20.57,-47.92 -10.35,-68.92 8.92,-18.28 40.36,-21.91 68.95,-18.95 73.35,7.56 127.68,57.04 170.63,99.94 46.7,46.76 96.9,103.9 89.59,182.67 -2.72,28.99 -15.2,61.66 -27.56,87.89 -9.77,20.76 -34.09,66.29 -63.77,55.15 -56.86,-56.97 -107.31,-138.59 -153.37,-206.8 m -3074.39,656.57 c -3.82,-46.5 15.29,-71.2 49.97,-75.8 111.4,-14.9 169.49,75 217.13,129.2 22.99,26.2 31.16,37 46.54,65.5 14.31,26.5 32.81,64.4 36.19,94.8 8.4,75.6 -52.64,120.1 -112.01,94.8 -6.92,-45.1 -7.38,-85 -32.75,-113.8 -29.21,-33.1 -84.54,-44 -137.86,-29.3 -30.52,-36.2 -62.49,-107.9 -67.21,-165.4 m 3748.19,446.3 c -28.78,-14.6 -46.83,-43.9 -67.2,-75.8 -17.73,-27.6 -39.98,-60.7 -31.05,-87.9 27.42,-14 145.66,100.7 120.63,165.5 -8.6,5.1 -18.63,0.2 -22.38,-1.8 m -744.5,77.6 c -38.35,-32.3 2.14,-74.5 34.48,-91.3 47.67,19.7 162.49,115.1 87.9,139.5 -24.9,11.9 -98.05,-27.8 -122.38,-48.2 m -3650.26,511.8 c 0,0 -186.04,-390.9 -212.83,-460.9 -6.16,-16.1 -53.08,-93.2 -15.51,-100.8 8.75,-4.1 24.55,12.2 33.24,20.6 35.92,34.8 50.36,67.6 73.16,102.9 31.91,49.3 67.49,91 97.55,135.7 29.54,44 57.55,97.8 82.03,150.2 24.52,52.6 56.62,111.2 68.73,162.6 13.11,27.1 57.07,126.7 22.17,129.6 -2.22,-0.1 15.06,-1.5 -4.44,2 -74.39,13.1 -144.1,-141.9 -144.1,-141.9 m 1478.94,-546.3 c 22.12,7 36.48,16 58.6,24.1 18.95,7.1 44.69,18.9 67.21,8.7 40.29,-18.4 1.74,-86.2 -12.1,-124.1 -8.41,-23.2 -12.29,-47.4 -18.95,-68.9 -27.04,-88.4 -58.93,-167.9 -53.43,-293 1.16,-26.5 4.4,-62 13.78,-72.4 19.98,-22.1 96.05,-15.5 125.8,-6.9 21.16,6.1 59.77,24.2 79.31,37.9 15.59,11 31.56,35.6 50,56.9 34.21,39.7 65.26,75 96.44,117.2 16.17,21.8 36.93,39.1 48.25,56.9 17.98,28 29.24,65.2 56.92,87.8 27.23,22.3 117.14,34.3 132.66,-10.3 7.25,-20.7 3.37,-55 6.92,-89.6 1.43,-14.2 13.27,-121.6 46.51,-134.4 18.96,-7.3 52.65,-2.9 70.64,5.2 21.28,9.4 39.78,39.9 58.6,60.3 21.54,23.3 41.72,39.9 60.34,58.6 41.08,41 77.43,82.3 115.47,122.3 34.99,36.9 79.49,80.3 117.14,120.6 37.32,39.9 89.71,80.1 165.45,70.7 42.05,-5.2 66.37,-41.9 65.46,-96.5 -0.97,-61.4 -36.09,-149.3 -53.36,-201.6 -12.03,-36.4 -18.24,-62.4 -32.8,-94.8 -9.96,-22.2 -41.2,-76.7 -24.12,-91.4 12.29,-10.4 37.32,34.7 44.82,43.1 16.11,18 76.78,77.8 87.91,89.6 11.77,12.6 68.11,71.1 89.58,87.9 36.22,28.4 80.92,59 134.41,72.4 22.06,5.5 53.3,4.3 68.95,0 96.32,-26.6 85.38,-145.1 136.16,-225.7 17.85,-28.4 48.25,-46.2 86.16,-24.2 22.77,13.3 37.38,45 56.85,67.2 20.83,23.8 44.44,41.4 62.03,62.1 40.5,47.4 66.95,103.8 91.34,156.8 -28.72,47.8 -87.65,80.5 -68.89,149.9 27.75,103.8 117.14,139.6 117.14,139.6 0,0 111.45,45.7 168.89,58.6 27.88,6.3 64.23,10.4 98.25,15.5 36.8,5.6 83.11,8.6 106.85,0 30.79,-11.1 54.27,-71.5 43.08,-115.4 -10.8,-42.4 -46.31,-82.2 -74.12,-115.5 -57.31,-68.8 -120.25,-130.1 -182.67,-196.5 -28.72,-30.5 -79.04,-61.2 -94.76,-93 -24.51,-49.4 -15.52,-125.7 6.86,-170.6 14.49,-29 38.68,-57.6 58.6,-84.5 20.7,-27.8 43.6,-55.5 70.63,-72.3 57.12,43.7 105.44,97.2 153.43,149.9 48.51,53.3 85.19,116.5 143.01,160.2 4.14,62.4 19.09,119.9 41.34,172.4 20.82,48.9 44.43,98.7 74.12,137.8 15.08,19.9 91.53,107.1 110.29,122.4 10.09,8.2 49.09,32.5 58.6,36.2 37.45,14.4 114.42,12.8 139.58,-8.6 18.82,-16.1 45.39,-83.2 43.09,-120.7 -1.1,-18.8 -13.5,-45.4 -20.71,-68.9 -33.89,-110.8 -112.02,-177.5 -187.83,-253.3 -29.57,-29.6 -69.02,-59.1 -77.56,-98.2 -11.38,-52.4 27.1,-100 70.7,-101.7 44.69,-1.8 92.49,11.5 134.41,22.4 41.65,10.8 79.39,28.6 113.69,41.3 2.2,-19.5 4.9,-36.8 6.9,-55.1 6.5,-39.9 -21.2,-81 -32.7,-89.6 -28.7,-21.4 -57.17,-39.5 -89.64,-51.7 -16.94,-6.4 -89.32,-26.2 -106.85,-29.3 -113.78,-20.2 -187.84,21.5 -224,98.2 -12.93,27.4 -24.12,73 -51.68,75.8 -23.09,2.4 -42.24,-25.9 -56.92,-43 -48.77,-57 -92.17,-111.5 -137.84,-172.4 51.3,-55.4 93.66,-103.43 136.16,-153.35 44.05,-51.73 67.53,-117.81 82.73,-205.07 0.19,-1.09 -0.07,-2.35 0,-3.44 1.35,-37.44 -8.61,-79.44 -20.7,-112.02 -34.54,-92.91 -111,-161.48 -179.24,-215.41 -44.82,-35.42 -104.46,-73.2 -170.56,-93.06 -78.53,-23.57 -210.68,-21.23 -241.27,44.8 -16.95,36.42 -19.02,140.18 -10.35,186.12 6.08,32.43 26.78,74.72 44.76,105.12 19.66,33.2 39.84,66.39 58.61,91.34 19.4,25.74 40.74,56.24 67.2,82.71 21.02,21.01 63.97,50.6 60.35,87.89 -3.04,30.97 -59.51,66.67 -82.73,91.35 -29.56,31.42 -51.88,67.82 -75.81,96.52 -27.23,32.5 -52.33,63.7 -72.38,99.9 -20.95,37.9 -30.27,79.5 -44.83,127.5 -51.03,-37.5 -109.57,-100.4 -168.88,-134.4 -39.07,-22.4 -91.59,-25.7 -132.73,0 -42.62,26.7 -111.58,147.8 -127.49,167.2 -10.28,12.5 -32.53,46.8 -46.51,48.2 -9.96,1.1 -38.93,-14.6 -53.42,-24.1 -32.8,-21.5 -56.73,-48 -86.16,-68.9 -17.6,-12.5 -69.86,-53.5 -79.3,-65.5 -44.31,-56.1 -96.44,-104.7 -149.94,-155.1 -21.08,-19.9 -42.23,-45.2 -65.45,-56.9 -26.14,-13.1 -92.82,-18.7 -108.6,1.8 -14.17,18.4 -17.79,50.7 -13.78,79.2 33.31,88.8 63.97,181.2 91.33,275.8 8.73,30.1 29.04,59.4 24.13,93 -42.31,31.6 -101.62,-46.5 -125.81,-70.6 -36.55,-36.6 -130.73,-129.4 -141.27,-137.9 -22.25,-17.8 -58.73,-31 -86.22,-44.8 -55.31,-27.8 -116.82,-52 -180.92,-15.5 -26.52,15.1 -46.12,37.4 -58.6,63.7 -11.77,24.9 -13.07,58.5 -39.65,82.8 -65.46,-63.9 -124.64,-142.5 -198.12,-213.7 -31.25,-30.2 -74.26,-63.9 -134.48,-70.7 -31.24,-3.5 -66.75,-3 -101.61,-1.7 -78.72,2.9 -130.02,20.4 -153.43,81 -12.03,31.2 -17.21,75.7 -22.38,115.5 -5.37,41.2 2.45,85.9 -17.21,120.6 -16.04,1.5 -70.18,-55.4 -79.3,-67.2 -11.71,-15.2 -73.28,-81.4 -93.07,-96.5 -34.87,-26.7 -91.73,-79.6 -156.8,-53.5 -18.49,7.5 -28.36,23.5 -39.64,41.4 -54.33,-65.2 -120.76,-105.5 -210.24,-134.4 -15,-4.9 -29.31,-8.3 -46.54,-10.4 -21.36,-2.4 -41.28,-10 -67.2,-8.6 -68.92,3.7 -126.14,54.6 -149.93,105.2 -11.61,24.6 -17.65,66 -8.62,108.5 3.61,17 33.36,86.5 10.34,96.5 -18.09,7.9 -47.72,-22.3 -63.77,-34.4 -21.63,-16.4 -42.14,-30 -58.58,-43.1 -40.53,-32.5 -206.45,-132.6 -244.71,-162 -38.82,-29.8 -85.23,-60.6 -137.87,-65.5 -44.81,-4.2 -87.91,5.7 -130.97,10.3 -43.64,4.8 -83.5,8.5 -112.01,29.3 -55.77,40.8 -73.68,107.9 -89.61,191.3 -45.43,-53.6 -101.51,-116.8 -160.27,-172.3 -7.53,-7.1 -18.15,-15.7 -29.29,-27.6 -18.06,-27.5 -199.57,-36.7 -213.7,-27.6 -1.48,15.9 16.09,25.9 25.85,32.8 11.54,8.2 23.73,15.7 34.47,22.4 23.85,14.9 42.14,30.7 62.04,51.7 36.4,38.3 75.26,76.4 110.29,117.2 34.56,40.2 61.34,89.8 89.61,139.6 28.32,49.8 51.56,104.3 65.49,162 11.56,47.8 49.1,248 63.76,296.4 14.33,47.2 78.14,234.7 98.23,279.1 9.39,20.8 189.48,371.7 274.01,480.8 30.89,39.9 76.73,104.6 132.69,110.3 46.35,4.8 102.55,-14.5 118.91,-49.9 14.12,-30.6 14.9,-75.9 8.61,-117.2 -5.98,-39.4 -11.78,-79.2 -18.95,-113.8 -5.71,-27.5 -37.72,-152.8 -39.64,-160.2 -9.49,-36.6 -89.81,-230.9 -124.07,-279.2 -10.71,-15.1 -67.07,-122.9 -87.89,-151.7 -22.99,-31.8 -82.89,-132.4 -94.79,-148.2 -55.66,-73.5 -118.42,-153 -168.88,-230.9 -3.74,-76.5 9.79,-141.8 41.36,-186.1 29.06,-40.8 83.88,-75.4 153.37,-68.9 19.93,1.8 40.63,8.7 60.32,13.8 18.96,4.9 40.09,7.9 58.59,15.5 34.25,13.9 201.36,125.5 236.09,141.3 31.93,14.5 65.81,33.8 93.06,55.1 21.92,17.2 44.78,42.6 67.21,62.1 22.14,19.1 49.99,38.2 68.93,58.5 16.17,17.5 27.45,37.3 46.53,55.2 16.52,15.5 35.33,30.6 55.15,46.5 52.15,41.8 75.76,91.8 132.69,108.6 21.94,6.5 80.22,5.3 86.17,-13.8 4.46,-14.4 -31.87,-50.7 -20.69,-62 9.94,-10.1 48.15,12 58.6,15.5 22.02,7.3 44.35,15.8 62.03,17.2 190.91,14.8 205.99,-223.1 132.7,-351.5 -7.37,-13 -27.88,-27.6 -27.55,-41.4 0.19,-9.5 12.74,-20.9 18.95,-22.4 24.38,-5.9 47.02,21.1 63.77,37.9 51.04,51 95.67,109.5 139.59,162 62.03,74.1 121.6,145.9 177.49,224" /><path
         id="path18"
         style="fill:#d1c9bc;fill-opacity:1;fill-rule:evenodd;stroke:none"
         d="m 10464.8,7825.16 c -21.9,-16.3 -40.3,-41.65 -51.7,-60.28 -17.8,-29.11 -37.9,-77.81 -32.8,-136.16 10.2,-115.91 111.1,-201.22 227.5,-194.76 102.5,5.7 207.2,82.41 206.8,217.15 -0.1,36.67 -8.8,67.98 -22.4,96.5 -33.1,69.66 -107.9,127.43 -211.9,118.95 -51.4,-4.27 -89,-21.54 -115.5,-41.4 m 106.8,98.26 c 144.1,13.26 241,-71.99 280.9,-172.38 19.7,-49.48 24.6,-117.66 8.6,-174 -14.1,-50.13 -39.1,-91.39 -75.8,-125.81 -76.1,-71.41 -200.7,-97.47 -306.7,-48.25 -96,44.57 -194.5,179.43 -143,334.28 22,66.3 63.9,116.3 122.3,149.94 32.7,18.88 70.1,32.21 113.7,36.22" /><path
         id="path20"
         style="fill:#d1c9bc;fill-opacity:1;fill-rule:evenodd;stroke:none"
         d="m 10631.9,7676.98 c 24.3,16.43 26.4,62.22 1.8,79.23 -18.2,12.55 -47.1,10.68 -77.6,8.67 v -98.25 c 30.5,1.35 55.1,-3.69 75.8,10.35 m 22.4,-32.73 c 25,-16.04 34.4,-49.74 43.1,-86.16 5.2,-21.73 12.4,-43.27 13.8,-62.09 -12.8,-2.72 -35.5,-2.72 -48.2,0 -24.5,33.05 -11,105.95 -50,124.12 -14.2,6.6 -31.1,3.76 -55.2,5.18 -5.1,-39.14 1.8,-90.17 -3.4,-129.3 -12.8,-2.2 -38.1,-4.21 -48.3,1.74 -2.8,96.51 -2.8,205.05 0,301.62 49.3,12.68 119.6,19.08 160.3,-6.93 49.4,-31.5 47.6,-126.51 -12.1,-148.18" /><path
         id="path22"
         style="fill:#d1c9bc;fill-opacity:1;fill-rule:nonzero;stroke:none"
         d="m 1506.84,5662.25 c 174.09,0 338.06,-54.53 491.99,-163.65 16.42,-31.37 24.65,-55.63 24.65,-72.83 v -8.93 c 0,-68.05 -39.97,-106.14 -119.92,-114.36 H 1889 l -152.42,78.46 c -94.13,29.88 -170.72,44.83 -229.74,44.83 -190.51,0 -354.88,-87 -493.1,-261.13 -69.486,-116.55 -104.22,-230.07 -104.22,-340.68 0,-222.64 104.6,-399.35 313.79,-530.07 91.9,-47.8 183.79,-71.74 275.69,-71.74 h 12.33 c 117.28,0 239.43,39.59 366.46,118.83 h 39.23 c 70.97,-15.72 106.46,-52.33 106.46,-109.84 v -12.35 c 0,-76.2 -102.73,-144.95 -308.19,-206.21 -62.03,-17.92 -127.02,-26.9 -195,-26.9 H 1499 c -276.43,0 -507.676,127.81 -693.707,383.3 -88.164,148.64 -132.238,300.32 -132.238,454.98 0,290.62 132.238,527.1 396.725,709.37 141.94,85.97 287.62,128.92 437.06,128.92" /><path
         id="path24"
         style="fill:#d1c9bc;fill-opacity:1;fill-rule:nonzero;stroke:none"
         d="m 2362.8,5658.88 h 20.17 c 70.98,-14.94 106.47,-48.58 106.47,-100.84 v -636.6 h 730.68 v 627.61 c 12.7,73.22 49.31,109.83 109.83,109.83 h 15.69 c 70.98,-13.45 106.46,-50.06 106.46,-109.83 V 4091.04 c 0,-54.52 -36.98,-89.65 -110.95,-105.36 h -11.2 c -73.24,13.45 -109.83,51.55 -109.83,114.29 v 593.98 H 2489.44 V 4095.5 c 0,-60.47 -36.61,-97.08 -109.83,-109.82 h -7.84 c -62.04,0 -100.14,38.48 -114.32,115.45 V 5534.5 c 8.97,82.92 44.09,124.38 105.35,124.38" /><path
         id="path26"
         style="fill:#d1c9bc;fill-opacity:1;fill-rule:nonzero;stroke:none"
         d="m 3849.7,4814.97 c 0,-193.47 85.9,-356.72 257.76,-489.71 106.08,-71.74 219.27,-107.57 339.56,-107.57 h 21.3 c 189,0 349.26,84.41 480.77,253.3 74.7,107.56 112.07,225.22 112.07,352.97 0,218.89 -100.5,392.24 -301.46,519.98 -98.63,56.79 -199.87,85.19 -303.71,85.19 -200.23,0 -366.46,-87.39 -498.7,-262.22 -71.73,-103.11 -107.59,-220.37 -107.59,-351.94 m 606.29,846.17 c 282.41,0 518.49,-130.78 708.27,-392.23 85.91,-148.7 128.88,-298.51 128.88,-449.41 0,-279.43 -126.26,-511.77 -378.79,-697.09 -143.45,-91.14 -293.62,-136.73 -450.52,-136.73 h -16.81 c -288.4,0 -523.35,133.76 -704.9,401.22 -82.94,135.96 -124.41,282.79 -124.41,440.42 0,267.47 117.29,492.37 351.9,674.64 153.15,106.08 315.29,159.18 486.38,159.18" /><path
         id="path28"
         style="fill:#d1c9bc;fill-opacity:1;fill-rule:nonzero;stroke:none"
         d="m 6300.39,5662.25 c 174.07,0 338.04,-54.53 491.99,-163.65 16.43,-31.37 24.64,-55.63 24.64,-72.83 v -8.93 c 0,-68.05 -39.97,-106.14 -119.92,-114.36 h -14.55 l -152.39,78.46 c -94.17,29.88 -170.76,44.83 -229.77,44.83 -190.52,0 -354.89,-87 -493.11,-261.13 -69.48,-116.55 -104.22,-230.07 -104.22,-340.68 0,-222.64 104.6,-399.35 313.8,-530.07 91.89,-47.8 183.78,-71.74 275.68,-71.74 h 12.33 c 117.29,0 239.45,39.59 366.49,118.83 h 39.19 c 70.96,-15.72 106.47,-52.33 106.47,-109.84 v -12.35 c 0,-76.2 -102.71,-144.95 -308.21,-206.21 -62,-17.92 -127.01,-26.9 -194.98,-26.9 h -21.29 c -276.43,0 -507.67,127.81 -693.7,383.3 -88.16,148.64 -132.24,300.32 -132.24,454.98 0,290.62 132.24,527.1 396.72,709.37 141.94,85.97 287.63,128.92 437.07,128.92" /><path
         id="path30"
         style="fill:#d1c9bc;fill-opacity:1;fill-rule:nonzero;stroke:none"
         d="m 7283,4814.97 c 0,-193.47 85.89,-356.72 257.76,-489.71 106.08,-71.74 219.27,-107.57 339.58,-107.57 h 21.28 c 189,0 349.22,84.41 480.72,253.3 74.71,107.56 112.09,225.22 112.09,352.97 0,218.89 -100.51,392.24 -301.41,519.98 -98.64,56.79 -199.94,85.19 -303.75,85.19 -200.26,0 -366.5,-87.39 -498.71,-262.22 C 7318.83,5063.8 7283,4946.54 7283,4814.97 m 606.27,846.17 c 282.4,0 518.49,-130.78 708.27,-392.23 85.9,-148.7 128.85,-298.51 128.85,-449.41 0,-279.43 -126.27,-511.77 -378.78,-697.09 -143.41,-91.14 -293.6,-136.73 -450.52,-136.73 h -16.75 c -288.42,0 -523.41,133.76 -704.98,401.22 -82.92,135.96 -124.38,282.79 -124.38,440.42 0,267.47 117.27,492.37 351.94,674.64 153.1,106.08 315.26,159.18 486.35,159.18" /><path
         id="path32"
         style="fill:#d1c9bc;fill-opacity:1;fill-rule:nonzero;stroke:none"
         d="m 9005.23,5658.88 h 20.18 c 70.96,-14.94 106.47,-48.58 106.47,-100.84 V 4217.69 h 657.82 c 65.01,0 103.5,-41.46 115.46,-124.39 -21.73,-71.73 -60.15,-107.62 -115.46,-107.62 h -775.48 c -62.02,0 -100.19,38.48 -114.35,115.45 V 5534.5 c 8.99,82.92 44.11,124.38 105.36,124.38" /><path
         id="path34"
         style="fill:#d1c9bc;fill-opacity:1;fill-rule:nonzero;stroke:none"
         d="m 10855.9,4853.13 -135.7,355.24 -131.1,-355.24 z m -137.9,800.12 c 69.5,0 118.4,-59.76 146.9,-179.3 339.1,-883.82 510.6,-1338.47 514.3,-1363.89 v -14.56 c 0,-60.47 -36.6,-97.08 -109.8,-109.82 h -7.8 c -67.3,0 -113.2,55.69 -137.9,167 l -180.5,468.44 h -445.9 l -226.4,-597.35 c -33.7,-25.35 -62.8,-38.09 -87.5,-38.09 h -12.3 c -73.2,13.45 -109.8,51.22 -109.8,113.19 v 10.09 l 145.7,394.5 c 250.3,651.48 376.9,1019.07 409,1090.42 30.7,48.25 69.9,59.37 102,59.37" /><path
         id="path36"
         style="fill:#d1c9bc;fill-opacity:1;fill-rule:nonzero;stroke:none"
         d="m 11396.4,5662.25 h 1049 c 70.9,-13.46 106.4,-50.07 106.4,-109.84 v -16.81 c 0,-61.26 -41.4,-96.38 -124.4,-105.37 h -390 V 4095.5 c 0,-60.47 -37.4,-97.08 -112.1,-109.82 h -5.5 c -62.1,0 -100.2,38.48 -114.3,115.45 v 1329.1 h -399 c -77,14.94 -115.4,55.31 -115.4,121.09 16.4,73.93 51.5,110.93 105.3,110.93" /><path
         id="path38"
         style="fill:#d1c9bc;fill-opacity:1;fill-rule:nonzero;stroke:none"
         d="m 12887.8,5664.51 h 825.9 l 16.9,4.46 c 70.9,0 112,-42.62 123.2,-127.74 -15.7,-73.23 -57.9,-109.84 -126.6,-109.84 h -745.3 v -506.53 h 475.2 l 60.5,4.47 c 56.7,0 93.7,-38.49 110.9,-115.46 0,-54.53 -32,-95.28 -96.3,-122.12 l -91.9,4.46 h -458.4 v -477.42 h 765.5 c 59,0 94.8,-41.85 107.5,-125.49 -21.6,-71.73 -58.6,-107.62 -110.9,-107.62 h -884.3 c -73.9,13.45 -110.9,51.55 -110.9,114.35 v 1452.38 c -4.8,96.32 38.1,112.1 80.7,112.1 h 58.3" /><path
         id="path40"
         style="fill:#d1c9bc;fill-opacity:1;fill-rule:nonzero;stroke:none"
         d="m 1506.84,2908.06 c 174.09,0 338.06,-54.59 491.99,-163.64 16.42,-31.37 24.65,-55.69 24.65,-72.84 v -8.99 c 0,-67.98 -39.97,-106.08 -119.92,-114.29 H 1889 l -152.42,78.46 c -94.13,29.88 -170.72,44.82 -229.74,44.82 -190.51,0 -354.88,-87.06 -493.1,-261.12 -69.486,-116.56 -104.22,-230.14 -104.22,-340.68 0,-222.71 104.6,-399.35 313.79,-530.14 91.9,-47.8 183.79,-71.67 275.69,-71.67 h 12.33 c 117.28,0 239.43,39.59 366.46,118.76 h 39.23 c 70.97,-15.66 106.46,-52.27 106.46,-109.83 v -12.29 c 0,-76.2 -102.73,-144.96 -308.19,-206.21 -62.03,-17.98 -127.02,-26.91 -195,-26.91 H 1499 c -276.43,0 -507.676,127.75 -693.707,383.24 -88.164,148.71 -132.238,300.39 -132.238,455.05 0,290.61 132.238,527.1 396.725,709.37 141.94,85.9 287.62,128.91 437.06,128.91" /><path
         id="path42"
         style="fill:#d1c9bc;fill-opacity:1;fill-rule:nonzero;stroke:none"
         d="m 2489.44,2060.79 c 0,-193.53 85.9,-356.73 257.76,-489.72 106.07,-71.73 219.26,-107.63 339.56,-107.63 h 21.29 c 189.01,0 349.27,84.48 480.78,253.3 74.69,107.57 112.06,225.22 112.06,353.04 0,218.88 -100.48,392.23 -301.45,519.98 -98.62,56.79 -199.88,85.19 -303.71,85.19 -200.23,0 -366.46,-87.45 -498.71,-262.29 -71.72,-103.11 -107.58,-220.37 -107.58,-351.87 m 606.29,846.11 c 282.41,0 518.49,-130.72 708.27,-392.24 85.91,-148.64 128.88,-298.44 128.88,-449.41 0,-279.43 -126.26,-511.77 -378.79,-697.02 -143.45,-91.14 -293.62,-136.74 -450.52,-136.74 h -16.81 c -288.4,0 -523.36,133.76 -704.91,401.23 -82.93,135.96 -124.39,282.79 -124.39,440.42 0,267.46 117.28,492.3 351.89,674.64 153.15,106.08 315.28,159.12 486.38,159.12" /><path
         id="path44"
         style="fill:#d1c9bc;fill-opacity:1;fill-rule:nonzero;stroke:none"
         d="m 4245.3,2910.26 h 825.95 l 16.81,4.53 c 70.98,0 112.07,-42.63 123.28,-127.81 -15.7,-73.22 -57.91,-109.83 -126.64,-109.83 h -745.26 v -506.53 h 475.17 l 60.52,4.46 c 56.76,0 93.75,-38.42 110.95,-115.39 0,-54.53 -32.13,-95.28 -96.38,-122.19 l -91.9,4.46 h -458.36 v -567 l 5.6,-30.28 c -17.93,-75.48 -56.42,-113.19 -115.43,-113.19 h -12.33 c -73.96,13.46 -110.94,51.55 -110.94,114.3 v 1452.44 c -4.42,84.48 38.11,112.03 80.69,112.03 h 58.27" /><path
         id="path46"
         style="fill:#d1c9bc;fill-opacity:1;fill-rule:nonzero;stroke:none"
         d="m 5479.42,2910.26 h 825.94 l 16.82,4.53 c 70.98,0 112.07,-42.63 123.27,-127.81 -15.69,-73.22 -57.9,-109.83 -126.64,-109.83 h -745.25 v -506.53 h 475.17 l 60.52,4.46 c 56.77,0 93.75,-38.42 110.95,-115.39 0,-54.53 -32.13,-95.28 -96.38,-122.19 l -91.9,4.46 h -458.36 v -567 l 5.6,-30.28 c -17.93,-75.48 -56.41,-113.19 -115.43,-113.19 h -12.33 c -73.97,13.46 -110.94,51.55 -110.94,114.3 v 1452.44 c -7.29,92.5 38.1,112.03 80.69,112.03 h 58.27" /><path
         id="path48"
         style="fill:#d1c9bc;fill-opacity:1;fill-rule:nonzero;stroke:none"
         d="m 6713.53,2910.26 h 826 l 16.75,4.53 c 71.02,0 112.1,-42.63 123.28,-127.81 -15.65,-73.22 -57.89,-109.83 -126.65,-109.83 h -745.2 v -506.53 h 475.16 l 60.54,4.46 c 56.73,0 93.72,-38.42 110.93,-115.39 0,-54.53 -32.15,-95.28 -96.38,-122.19 l -91.91,4.46 h -458.34 v -477.35 h 765.39 c 59.05,0 94.88,-41.85 107.63,-125.55 -21.73,-71.74 -58.67,-107.57 -111,-107.57 h -884.21 c -73.93,13.46 -110.93,51.55 -110.93,114.3 v 1452.44 c -2.2,88.49 38.1,112.03 80.66,112.03 h 58.28" /><path
         id="path50"
         style="fill:#d1c9bc;fill-opacity:1;fill-rule:nonzero;stroke:none"
         d="m 7996.51,2910.26 h 825.93 l 16.82,4.53 c 70.95,0 112.03,-42.63 123.28,-127.81 -15.72,-73.22 -57.95,-109.83 -126.65,-109.83 h -745.27 v -506.53 h 475.16 l 60.54,4.46 c 56.73,0 93.73,-38.42 110.93,-115.39 0,-54.53 -32.14,-95.28 -96.37,-122.19 l -91.92,4.46 h -458.34 v -477.35 h 765.45 c 59,0 94.83,-41.85 107.57,-125.55 -21.67,-71.74 -58.66,-107.57 -110.93,-107.57 h -884.27 c -73.94,13.46 -110.93,51.55 -110.93,114.3 v 1452.44 c -8.03,96.45 38.1,112.03 80.72,112.03 h 58.28" /><path
         id="path52"
         style="fill:#d1c9bc;fill-opacity:1;fill-rule:evenodd;stroke:none"
         d="m 1416.57,5602.93 c 147.39,7.05 262.9,-16.04 376.54,-43.07 16.25,-3.89 33.07,-11.07 50.65,-8.48 27.21,19.73 55.47,39.52 86.51,58.73 29.85,18.5 67.86,40.43 111.03,37.78 19.03,-0.71 15.59,-15.66 15.55,-16.5 -5.13,-38.29 -24.94,-58.41 -28.81,-94.18 -1.78,-16.55 6.69,-34.28 11.95,-51.35 15.73,-51.04 27.2,-97.74 39.22,-153.17 3.88,-17.92 7.18,-36.61 9.37,-55.57 2.15,-18.56 5.07,-39.77 4.75,-59.69 -0.59,-36.88 -7.51,-74.46 -14.71,-108.74 -7.07,-33.7 -19.55,-66.04 -33.72,-89.65 -14.7,-24.51 -36.2,-47.8 -67.42,-59.44 -17.52,-6.6 -34.28,-8.8 -50.98,-1.75 -14.1,5.95 -27.65,18.63 -29.11,35.13 -0.89,10.09 2.72,19.98 5.14,29.43 7.04,27.48 13.73,56.79 17.49,86.35 6.24,48.96 -5.61,85.31 -21.68,117.72 -16.46,33.18 -34.86,59.77 -59.31,83.05 -24.78,23.68 -51.42,41.66 -81.65,59.18 -57.84,33.58 -125.03,65.14 -201.4,77.63" /><path
         id="path54"
         style="fill:none;stroke:#d3d2d2;stroke-width:6.4682498;stroke-linecap:butt;stroke-linejoin:miter;stroke-miterlimit:10;stroke-dasharray:none;stroke-opacity:1"
         d="m 1416.57,5602.93 c 147.39,7.05 262.9,-16.04 376.54,-43.07 16.25,-3.89 33.07,-11.07 50.65,-8.48 27.21,19.73 55.47,39.52 86.51,58.73 29.85,18.5 67.86,40.43 111.03,37.78 19.03,-0.71 15.59,-15.66 15.55,-16.5 -5.13,-38.29 -24.94,-58.41 -28.81,-94.18 -1.78,-16.55 6.69,-34.28 11.95,-51.35 15.73,-51.04 27.2,-97.74 39.22,-153.17 3.88,-17.92 7.18,-36.61 9.37,-55.57 2.15,-18.56 5.07,-39.77 4.75,-59.69 -0.59,-36.88 -7.51,-74.46 -14.71,-108.74 -7.07,-33.7 -19.55,-66.04 -33.72,-89.65 -14.7,-24.51 -36.2,-47.8 -67.42,-59.44 -17.52,-6.6 -34.28,-8.8 -50.98,-1.75 -14.1,5.95 -27.65,18.63 -29.11,35.13 -0.89,10.09 2.72,19.98 5.14,29.43 7.04,27.48 13.73,56.79 17.49,86.35 6.24,48.96 -5.61,85.31 -21.68,117.72 -16.46,33.18 -34.86,59.77 -59.31,83.05 -24.78,23.68 -51.42,41.66 -81.65,59.18 -57.84,33.58 -125.03,65.14 -201.4,77.63" /><path
         id="path56"
         style="fill:#d1c9bc;fill-opacity:1;fill-rule:evenodd;stroke:none"
         d="m 1493.36,4216.2 c 120.32,-2.91 215.74,22.12 298.45,57.7 54.48,23.48 99.49,59.19 125.21,112.68 13.63,28.33 21.1,63.26 14.29,100.06 -4.45,24.06 -14.85,45.02 -25.16,64.04 -3.31,6.08 -8.84,14.48 -8.01,22.25 0.8,7.3 9.24,12.42 15.44,13.71 23.93,5.18 49.64,-0.07 64.61,-7.37 19.54,-9.64 30.37,-19.02 41.74,-33.19 33.86,-42.23 49.74,-101.42 57.17,-166.94 6.99,-61.58 -9.19,-117.08 -30.87,-153.82 -4.36,-7.37 -13.33,-17.4 -13.16,-24.58 0.11,-3.88 3.92,-8.67 5.72,-13.71 11.39,-32.08 14.64,-83.63 6.29,-121.8 -6.68,-30.53 -19.16,-60.48 -41.73,-76.58 -9.51,-6.79 -33.52,-18.24 -40.6,-2.33 -1.45,3.3 -1.08,7.63 -1.71,10.93 -4.77,24.39 -16.66,42.3 -32.02,56.02 -16.51,14.68 -39.61,30.4 -61.75,38.87 -3.35,1.23 -5.15,1.81 -9.14,1.68 -30.1,-0.71 -60.33,-4.78 -90.91,-7.43 -92.29,-7.9 -195.06,-4.66 -285.87,2.84" /><path
         id="path58"
         style="fill:none;stroke:#d3d2d2;stroke-width:6.4682498;stroke-linecap:butt;stroke-linejoin:miter;stroke-miterlimit:10;stroke-dasharray:none;stroke-opacity:1"
         d="m 1493.36,4216.2 c 120.32,-2.91 215.74,22.12 298.45,57.7 54.48,23.48 99.49,59.19 125.21,112.68 13.63,28.33 21.1,63.26 14.29,100.06 -4.45,24.06 -14.85,45.02 -25.16,64.04 -3.31,6.08 -8.84,14.48 -8.01,22.25 0.8,7.3 9.24,12.42 15.44,13.71 23.93,5.18 49.64,-0.07 64.61,-7.37 19.54,-9.64 30.37,-19.02 41.74,-33.19 33.86,-42.23 49.74,-101.42 57.17,-166.94 6.99,-61.58 -9.19,-117.08 -30.87,-153.82 -4.36,-7.37 -13.33,-17.4 -13.16,-24.58 0.11,-3.88 3.92,-8.67 5.72,-13.71 11.39,-32.08 14.64,-83.63 6.29,-121.8 -6.68,-30.53 -19.16,-60.48 -41.73,-76.58 -9.51,-6.79 -33.52,-18.24 -40.6,-2.33 -1.45,3.3 -1.08,7.63 -1.71,10.93 -4.77,24.39 -16.66,42.3 -32.02,56.02 -16.51,14.68 -39.61,30.4 -61.75,38.87 -3.35,1.23 -5.15,1.81 -9.14,1.68 -30.1,-0.71 -60.33,-4.78 -90.91,-7.43 -92.29,-7.9 -195.06,-4.66 -285.87,2.84" /><path
         id="path60"
         style="fill:#d1c9bc;fill-opacity:1;fill-rule:evenodd;stroke:none"
         d="m 1416.57,2840.66 c 147.39,7.05 262.9,-16.1 376.54,-43.07 16.25,-3.89 33.07,-11.13 50.65,-8.54 27.21,19.79 55.47,39.52 86.51,58.79 29.85,18.5 67.86,40.43 111.03,37.78 19.03,-0.78 15.59,-15.66 15.55,-16.5 -5.13,-38.35 -24.94,-58.41 -28.81,-94.24 -1.78,-16.49 6.69,-34.28 11.95,-51.29 15.73,-51.04 27.2,-97.8 39.22,-153.23 3.88,-17.86 7.18,-36.55 9.37,-55.5 2.15,-18.57 5.07,-39.78 4.75,-59.77 -0.59,-36.8 -7.51,-74.45 -14.71,-108.66 -7.07,-33.77 -19.55,-66.05 -33.72,-89.66 -14.7,-24.51 -36.2,-47.8 -67.42,-59.44 -17.52,-6.6 -34.28,-8.79 -50.98,-1.74 -14.1,5.95 -27.65,18.56 -29.11,35.05 -0.89,10.16 2.72,20.06 5.14,29.43 7.04,27.56 13.73,56.86 17.49,86.42 6.24,48.96 -5.61,85.25 -21.68,117.66 -16.46,33.18 -34.86,59.76 -59.31,83.12 -24.78,23.6 -51.42,41.65 -81.65,59.18 -57.84,33.5 -125.03,65.13 -201.4,77.55" /><path
         id="path62"
         style="fill:none;stroke:#d3d2d2;stroke-width:6.4682498;stroke-linecap:butt;stroke-linejoin:miter;stroke-miterlimit:10;stroke-dasharray:none;stroke-opacity:1"
         d="m 1416.57,2840.66 c 147.39,7.05 262.9,-16.1 376.54,-43.07 16.25,-3.89 33.07,-11.13 50.65,-8.54 27.21,19.79 55.47,39.52 86.51,58.79 29.85,18.5 67.86,40.43 111.03,37.78 19.03,-0.78 15.59,-15.66 15.55,-16.5 -5.13,-38.35 -24.94,-58.41 -28.81,-94.24 -1.78,-16.49 6.69,-34.28 11.95,-51.29 15.73,-51.04 27.2,-97.8 39.22,-153.23 3.88,-17.86 7.18,-36.55 9.37,-55.5 2.15,-18.57 5.07,-39.78 4.75,-59.77 -0.59,-36.8 -7.51,-74.45 -14.71,-108.66 -7.07,-33.77 -19.55,-66.05 -33.72,-89.66 -14.7,-24.51 -36.2,-47.8 -67.42,-59.44 -17.52,-6.6 -34.28,-8.79 -50.98,-1.74 -14.1,5.95 -27.65,18.56 -29.11,35.05 -0.89,10.16 2.72,20.06 5.14,29.43 7.04,27.56 13.73,56.86 17.49,86.42 6.24,48.96 -5.61,85.25 -21.68,117.66 -16.46,33.18 -34.86,59.76 -59.31,83.12 -24.78,23.6 -51.42,41.65 -81.65,59.18 -57.84,33.5 -125.03,65.13 -201.4,77.55" /><path
         id="path64"
         style="fill:#d1c9bc;fill-opacity:1;fill-rule:evenodd;stroke:none"
         d="m 1493.36,1453.87 c 120.32,-2.85 215.74,22.12 298.45,57.76 54.48,23.48 99.49,59.19 125.21,112.68 13.63,28.33 21.1,63.19 14.29,100 -4.45,24.06 -14.85,45.08 -25.16,64.03 -3.31,6.15 -8.84,14.56 -8.01,22.32 0.8,7.24 9.24,12.35 15.44,13.71 23.93,5.11 49.64,-0.06 64.61,-7.44 19.54,-9.57 30.37,-18.95 41.74,-33.11 33.86,-42.31 49.74,-101.49 57.17,-166.95 6.99,-61.58 -9.19,-117.14 -30.87,-153.82 -4.36,-7.37 -13.33,-17.46 -13.16,-24.57 0.11,-3.95 3.92,-8.67 5.72,-13.72 11.39,-32.08 14.64,-83.63 6.29,-121.8 -6.68,-30.53 -19.16,-60.54 -41.73,-76.64 -9.51,-6.73 -33.52,-18.18 -40.6,-2.27 -1.45,3.3 -1.08,7.63 -1.71,10.87 -4.77,24.45 -16.66,42.3 -32.02,56.01 -16.51,14.75 -39.61,30.47 -61.75,38.88 -3.35,1.29 -5.15,1.81 -9.14,1.74 -30.1,-0.71 -60.33,-4.78 -90.91,-7.43 -92.29,-7.89 -195.06,-4.66 -285.87,2.84" /><path
         id="path66"
         style="fill:none;stroke:#d3d2d2;stroke-width:6.4682498;stroke-linecap:butt;stroke-linejoin:miter;stroke-miterlimit:10;stroke-dasharray:none;stroke-opacity:1"
         d="m 1493.36,1453.87 c 120.32,-2.85 215.74,22.12 298.45,57.76 54.48,23.48 99.49,59.19 125.21,112.68 13.63,28.33 21.1,63.19 14.29,100 -4.45,24.06 -14.85,45.08 -25.16,64.03 -3.31,6.15 -8.84,14.56 -8.01,22.32 0.8,7.24 9.24,12.35 15.44,13.71 23.93,5.11 49.64,-0.06 64.61,-7.44 19.54,-9.57 30.37,-18.95 41.74,-33.11 33.86,-42.31 49.74,-101.49 57.17,-166.95 6.99,-61.58 -9.19,-117.14 -30.87,-153.82 -4.36,-7.37 -13.33,-17.46 -13.16,-24.57 0.11,-3.95 3.92,-8.67 5.72,-13.72 11.39,-32.08 14.64,-83.63 6.29,-121.8 -6.68,-30.53 -19.16,-60.54 -41.73,-76.64 -9.51,-6.73 -33.52,-18.18 -40.6,-2.27 -1.45,3.3 -1.08,7.63 -1.71,10.87 -4.77,24.45 -16.66,42.3 -32.02,56.01 -16.51,14.75 -39.61,30.47 -61.75,38.88 -3.35,1.29 -5.15,1.81 -9.14,1.74 -30.1,-0.71 -60.33,-4.78 -90.91,-7.43 -92.29,-7.89 -195.06,-4.66 -285.87,2.84" /><path
         id="path68"
         style="fill:#d1c9bc;fill-opacity:1;fill-rule:evenodd;stroke:none"
         d="m 6200.6,5595.56 c 147.39,7.05 262.89,-16.11 376.51,-43.08 16.3,-3.88 33.12,-11.12 50.65,-8.54 27.23,19.79 55.5,39.52 86.55,58.8 29.81,18.5 67.85,40.42 110.99,37.77 19.02,-0.77 15.59,-15.65 15.59,-16.49 -5.11,-38.36 -24.97,-58.41 -28.85,-94.24 -1.74,-16.5 6.73,-34.29 11.97,-51.36 15.72,-51.04 27.23,-97.74 39.26,-153.17 3.82,-17.85 7.18,-36.55 9.32,-55.5 2.2,-18.56 5.11,-39.78 4.78,-59.77 -0.58,-36.8 -7.5,-74.44 -14.75,-108.73 -7.05,-33.63 -19.53,-65.97 -33.69,-89.58 -14.69,-24.52 -36.23,-47.8 -67.41,-59.51 -17.52,-6.53 -34.28,-8.73 -51.03,-1.68 -14.04,5.88 -27.62,18.56 -29.04,35.06 -0.91,10.15 2.71,20.05 5.11,29.43 7.05,27.55 13.71,56.85 17.46,86.41 6.28,48.97 -5.56,85.26 -21.67,117.66 -16.42,33.18 -34.86,59.77 -59.31,83.12 -24.77,23.61 -51.42,41.65 -81.63,59.18 -57.82,33.51 -125.04,65.07 -201.41,77.56" /><path
         id="path70"
         style="fill:none;stroke:#d3d2d2;stroke-width:6.4682498;stroke-linecap:butt;stroke-linejoin:miter;stroke-miterlimit:10;stroke-dasharray:none;stroke-opacity:1"
         d="m 6200.6,5595.56 c 147.39,7.05 262.89,-16.11 376.51,-43.08 16.3,-3.88 33.12,-11.12 50.65,-8.54 27.23,19.79 55.5,39.52 86.55,58.8 29.81,18.5 67.85,40.42 110.99,37.77 19.02,-0.77 15.59,-15.65 15.59,-16.49 -5.11,-38.36 -24.97,-58.41 -28.85,-94.24 -1.74,-16.5 6.73,-34.29 11.97,-51.36 15.72,-51.04 27.23,-97.74 39.26,-153.17 3.82,-17.85 7.18,-36.55 9.32,-55.5 2.2,-18.56 5.11,-39.78 4.78,-59.77 -0.58,-36.8 -7.5,-74.44 -14.75,-108.73 -7.05,-33.63 -19.53,-65.97 -33.69,-89.58 -14.69,-24.52 -36.23,-47.8 -67.41,-59.51 -17.52,-6.53 -34.28,-8.73 -51.03,-1.68 -14.04,5.88 -27.62,18.56 -29.04,35.06 -0.91,10.15 2.71,20.05 5.11,29.43 7.05,27.55 13.71,56.85 17.46,86.41 6.28,48.97 -5.56,85.26 -21.67,117.66 -16.42,33.18 -34.86,59.77 -59.31,83.12 -24.77,23.61 -51.42,41.65 -81.63,59.18 -57.82,33.51 -125.04,65.07 -201.41,77.56" /><path
         id="path72"
         style="fill:#d1c9bc;fill-opacity:1;fill-rule:evenodd;stroke:none"
         d="m 6277.39,4208.77 c 120.32,-2.85 215.7,22.12 298.43,57.76 54.53,23.47 99.48,59.18 125.23,112.61 13.65,28.4 21.08,63.26 14.29,100.06 -4.46,24.07 -14.88,45.02 -25.16,64.04 -3.3,6.08 -8.86,14.55 -8.02,22.31 0.77,7.25 9.25,12.36 15.46,13.72 23.93,5.11 49.61,-0.07 64.61,-7.44 19.54,-9.58 30.34,-18.95 41.73,-33.19 33.89,-42.23 49.74,-101.42 57.18,-166.94 6.98,-61.51 -9.19,-117.08 -30.86,-153.75 -4.4,-7.38 -13.32,-17.47 -13.19,-24.58 0.12,-3.94 3.94,-8.67 5.75,-13.71 11.39,-32.09 14.62,-83.64 6.28,-121.8 -6.66,-30.53 -19.15,-60.54 -41.72,-76.65 -9.51,-6.73 -33.57,-18.17 -40.62,-2.26 -1.42,3.3 -1.1,7.63 -1.68,10.86 -4.79,24.46 -16.69,42.31 -32.02,56.02 -16.56,14.75 -39.65,30.4 -61.78,38.87 -3.36,1.3 -5.17,1.82 -9.11,1.75 -30.15,-0.78 -60.35,-4.85 -90.95,-7.44 -92.28,-7.89 -195.06,-4.65 -285.86,2.85" /><path
         id="path74"
         style="fill:none;stroke:#d3d2d2;stroke-width:6.4682498;stroke-linecap:butt;stroke-linejoin:miter;stroke-miterlimit:10;stroke-dasharray:none;stroke-opacity:1"
         d="m 6277.39,4208.77 c 120.32,-2.85 215.7,22.12 298.43,57.76 54.53,23.47 99.48,59.18 125.23,112.61 13.65,28.4 21.08,63.26 14.29,100.06 -4.46,24.07 -14.88,45.02 -25.16,64.04 -3.3,6.08 -8.86,14.55 -8.02,22.31 0.77,7.25 9.25,12.36 15.46,13.72 23.93,5.11 49.61,-0.07 64.61,-7.44 19.54,-9.58 30.34,-18.95 41.73,-33.19 33.89,-42.23 49.74,-101.42 57.18,-166.94 6.98,-61.51 -9.19,-117.08 -30.86,-153.75 -4.4,-7.38 -13.32,-17.47 -13.19,-24.58 0.12,-3.94 3.94,-8.67 5.75,-13.71 11.39,-32.09 14.62,-83.64 6.28,-121.8 -6.66,-30.53 -19.15,-60.54 -41.72,-76.65 -9.51,-6.73 -33.57,-18.17 -40.62,-2.26 -1.42,3.3 -1.1,7.63 -1.68,10.86 -4.79,24.46 -16.69,42.31 -32.02,56.02 -16.56,14.75 -39.65,30.4 -61.78,38.87 -3.36,1.3 -5.17,1.82 -9.11,1.75 -30.15,-0.78 -60.35,-4.85 -90.95,-7.44 -92.28,-7.89 -195.06,-4.65 -285.86,2.85" /><path
         id="path76"
         style="fill:#d1c9bc;fill-opacity:1;fill-rule:evenodd;stroke:none"
         d="m 13049.2,875.738 c -13.8,-20.504 -30.1,-39.004 -41.5,-58.668 -7.3,-12.675 -12.3,-30.011 -20,-50.129 -6.9,-17.918 -17.1,-39.843 -8.6,-57.308 7.4,-15.199 33.5,-18.176 57.3,-15.719 60.9,6.274 106.1,47.414 141.8,83.055 38.8,38.808 80.5,86.285 74.4,151.746 -2.2,24.125 -12.6,51.226 -22.9,73.085 -8.1,17.21 -28.3,55.05 -53,45.8 -47.2,-47.35 -89.2,-115.135 -127.5,-171.862 m -2554.7,545.602 c -3.2,-38.55 12.7,-59.13 41.5,-63 92.6,-12.36 140.9,62.35 180.5,107.43 19.1,21.73 25.8,30.73 38.7,54.4 11.9,22.06 27.2,53.49 30,78.78 7,62.81 -43.7,99.81 -93,78.72 -5.8,-37.38 -6.2,-70.57 -27.3,-94.5 -24.2,-27.55 -70.2,-36.61 -114.5,-24.32 -25.4,-30.14 -52,-89.78 -55.9,-137.51 m 3114.7,370.88 c -23.9,-12.09 -38.9,-36.48 -55.8,-63 -14.8,-22.96 -33.3,-50.45 -25.8,-73.02 22.7,-11.65 121.1,83.69 100.2,137.51 -7.1,4.21 -15.5,0.13 -18.6,-1.49 m -618.6,64.49 c -32,-26.84 1.7,-61.9 28.6,-75.93 39.6,16.42 135,95.66 73.1,116.04 -20.7,9.89 -81.5,-23.16 -101.7,-40.11 M 9957.23,2282 c 0,0 -154.59,-324.77 -176.84,-382.98 -5.11,-13.33 -44.12,-77.43 -12.94,-83.77 7.31,-3.43 20.44,10.09 27.62,17.14 29.88,28.85 41.92,56.15 60.81,85.45 26.51,41.01 56.14,75.68 81.1,112.8 24.52,36.55 47.81,81.25 68.12,124.84 20.4,43.66 47.1,92.37 57.1,135.06 10.9,22.57 47.5,105.37 18.4,107.69 -1.8,0 12.6,-1.16 -3.6,1.69 -61.8,10.93 -119.77,-117.92 -119.77,-117.92 m 1228.97,-453.94 c 18.4,5.82 30.3,13.26 48.7,20.05 15.7,5.82 37.1,15.65 55.8,7.18 33.5,-15.27 1.5,-71.6 -10,-103.1 -7,-19.28 -10.2,-39.4 -15.7,-57.31 -22.5,-73.42 -49,-139.52 -44.5,-243.47 1,-21.99 3.7,-51.48 11.5,-60.15 16.6,-18.37 79.8,-12.81 104.6,-5.69 17.5,5.04 49.6,20.11 65.8,31.5 13,9.12 26.3,29.55 41.6,47.28 28.4,32.92 54.2,62.29 80.2,97.35 13.4,18.17 30.6,32.53 40.1,47.28 14.9,23.29 24.2,54.2 47.2,73.02 22.7,18.5 97.4,28.46 110.3,-8.6 6,-17.2 2.8,-45.73 5.7,-74.45 1.3,-11.83 11,-101.03 38.6,-111.7 15.8,-6.08 43.8,-2.39 58.8,4.27 17.6,7.89 33,33.18 48.7,50.12 17.9,19.41 34.6,33.19 50.1,48.71 34.2,34.15 64.4,68.44 95.9,101.68 29.1,30.66 66.1,66.76 97.4,100.19 31,33.19 74.6,66.56 137.5,58.74 34.9,-4.34 55.2,-34.8 54.4,-80.21 -0.8,-50.97 -30,-124.06 -44.4,-167.53 -10,-30.2 -15.1,-51.81 -27.2,-78.72 -8.3,-18.43 -34.2,-63.71 -20.1,-75.93 10.2,-8.74 31,28.84 37.3,35.83 13.4,14.88 63.8,64.62 73,74.45 9.8,10.42 56.7,59.06 74.5,73.03 30.1,23.6 67.2,49.03 111.7,60.15 18.3,4.59 44.2,3.56 57.3,0 80,-22.12 70.9,-120.63 113.1,-187.58 14.8,-23.61 40.1,-38.42 71.6,-20.05 18.9,11 31.1,37.39 47.3,55.82 17.3,19.73 36.9,34.41 51.6,51.55 33.6,39.39 55.5,86.29 75.8,130.34 -23.9,39.65 -72.9,66.88 -57.3,124.58 23.1,86.22 97.4,115.97 97.4,115.97 0,0 92.6,37.97 140.3,48.71 23.2,5.17 53.4,8.6 81.7,12.87 30.6,4.66 69,7.12 88.8,0 25.6,-9.25 45.1,-59.44 35.7,-95.92 -8.9,-35.25 -38.4,-68.24 -61.5,-95.93 -47.6,-57.18 -99.9,-108.15 -151.8,-163.26 -23.9,-25.42 -65.6,-50.9 -78.8,-77.36 -20.3,-41.07 -12.8,-104.46 5.8,-141.78 12,-24.06 32.1,-47.8 48.6,-70.18 17.2,-23.16 36.3,-46.12 58.8,-60.09 47.4,36.28 87.5,80.72 127.5,124.58 40.2,44.24 70.7,96.83 118.8,133.18 3.5,51.81 15.8,99.61 34.3,143.14 17.4,40.75 37,82.02 61.6,114.62 12.5,16.49 76.1,89 91.6,101.68 8.5,6.79 40.9,27.04 48.8,30.08 31.1,11.9 95,10.61 116,-7.18 15.6,-13.33 37.6,-69.15 35.8,-100.26 -1,-15.59 -11.2,-37.77 -17.2,-57.24 -28.2,-92.11 -93.1,-147.55 -156.1,-210.55 -24.6,-24.57 -57.4,-49.16 -64.4,-81.63 -9.6,-43.53 22.5,-83.05 58.6,-84.47 37.2,-1.49 76.9,9.57 111.7,18.63 34.6,8.99 66.1,23.74 94.6,34.34 1.7,-16.23 3.9,-30.59 5.7,-45.79 5.4,-33.25 -17.6,-67.33 -27.2,-74.51 -23.8,-17.79 -47.5,-32.8 -74.5,-42.95 -14.1,-5.31 -74.2,-21.74 -88.7,-24.32 -94.7,-16.76 -156.2,17.85 -186.3,81.63 -10.6,22.7 -20,60.6 -42.9,63 -19.2,1.94 -35.1,-21.61 -47.2,-35.84 -40.6,-47.28 -76.7,-92.63 -114.6,-143.21 42.6,-46.05 77.8,-85.96 113.2,-127.42 36.5,-43.02 56,-97.93 68.6,-170.441 0.2,-0.902 0,-1.941 0,-2.844 1.2,-31.113 -7.1,-66.043 -17.2,-93.078 -28.6,-77.234 -92.2,-134.219 -148.9,-178.976 -37.2,-29.434 -86.8,-60.868 -141.7,-77.364 -65.2,-19.597 -175.1,-17.656 -200.5,37.258 -14,30.207 -15.8,116.496 -8.6,154.656 5,26.911 22.3,62.098 37.2,87.321 16.4,27.621 33.1,55.176 48.7,75.937 16.1,21.41 33.8,46.701 55.9,68.691 17.5,17.47 53.1,42.05 50.1,73.03 -2.5,25.74 -49.5,55.43 -68.7,75.94 -24.6,26.07 -43.1,56.34 -63,80.2 -22.7,26.98 -43.6,52.91 -60.2,83.06 -17.4,31.43 -25.2,66.04 -37.3,105.95 -42.3,-31.18 -91,-83.45 -140.3,-111.71 -32.5,-18.56 -76.1,-21.34 -110.2,0 -35.5,22.19 -92.8,122.83 -106,138.94 -8.6,10.35 -27,38.87 -38.7,40.1 -8.2,0.84 -32.3,-12.16 -44.4,-20.05 -27.2,-17.85 -47.2,-39.91 -71.6,-57.31 -14.6,-10.35 -58,-44.43 -65.9,-54.4 -36.8,-46.63 -80.1,-87.06 -124.5,-128.91 -17.6,-16.5 -35.2,-37.52 -54.4,-47.22 -21.8,-10.93 -77.2,-15.58 -90.3,1.42 -11.8,15.34 -4,43.99 -11.4,65.85 27.6,73.74 53.2,150.58 75.9,229.17 7.2,25.03 24.1,49.35 20,77.3 -35.2,26.2 -84.5,-38.62 -104.5,-58.73 -30.4,-30.41 -108.7,-107.5 -117.5,-114.56 -18.4,-14.81 -48.7,-25.74 -71.6,-37.19 -45.9,-23.16 -97.1,-43.27 -150.3,-12.93 -22.1,12.54 -38.3,31.11 -48.7,52.97 -9.8,20.7 -10.9,48.64 -32.9,68.76 -54.4,-53.11 -103.7,-118.44 -164.7,-177.55 -26,-25.1 -61.7,-53.05 -111.7,-58.74 -26,-2.98 -55.5,-2.52 -84.5,-1.42 -65.4,2.46 -108,16.94 -127.5,67.27 -10,25.94 -14.3,62.93 -18.6,95.99 -4.4,34.28 2.1,71.47 -14.3,100.26 -13.3,1.29 -58.3,-46.06 -65.9,-55.89 -9.7,-12.61 -60.9,-67.66 -77.3,-80.21 -29,-22.12 -76.3,-66.1 -130.4,-44.37 -15.3,6.21 -23.5,19.47 -32.9,34.35 -45.1,-54.14 -100.3,-87.65 -174.7,-111.65 -12.5,-4.07 -24.3,-6.98 -38.7,-8.6 -17.7,-2.07 -34.2,-8.34 -55.8,-7.18 -57.2,3.04 -104.8,45.35 -124.6,87.39 -9.6,20.5 -14.6,54.85 -7.1,90.17 2.9,14.1 27.7,71.92 8.6,80.2 -15.1,6.53 -39.7,-18.56 -53,-28.65 -18,-13.52 -35.1,-24.84 -48.7,-35.77 -33.7,-26.97 -171.6,-110.22 -203.4,-134.6 -32.3,-24.78 -114.53,-54.47 -114.53,-54.47 0,0 -73.03,4.72 -108.86,8.6 -36.23,3.95 -69.34,7.05 -93.08,24.39 -46.32,33.89 -61.19,89.65 -74.45,158.93 -37.71,-44.57 -84.35,-97.03 -133.18,-143.21 -6.28,-5.89 -15.07,-13.07 -24.32,-22.9 -7.31,-7.76 -165.85,-30.53 -177.62,-22.9 -1.23,13.13 13.39,21.41 21.54,27.17 9.57,6.86 19.66,13.07 28.59,18.63 19.85,12.35 35.06,25.55 51.55,42.95 30.27,31.88 62.55,63.51 91.65,97.41 28.72,33.44 50.97,74.64 74.45,115.97 23.55,41.4 42.89,86.74 54.46,134.61 9.58,39.78 40.82,206.14 52.98,246.31 11.9,39.33 64.94,195.08 81.63,232.01 7.83,17.21 157.44,308.86 227.68,399.55 25.71,33.12 63.81,86.87 110.31,91.66 38.5,3.94 85.2,-12.1 98.7,-41.53 11.8,-25.42 12.5,-63.07 7.2,-97.41 -5,-32.73 -9.7,-65.79 -15.7,-94.5 -4.8,-22.84 -31.4,-127.04 -33,-133.18 -7.8,-30.41 -74.6,-191.86 -103.1,-232.02 -8.8,-12.48 -55.7,-102.07 -73.01,-126 -19.08,-26.46 -68.89,-110.09 -78.72,-123.16 -46.31,-61.12 -98.45,-127.1 -140.36,-191.91 -3.11,-63.59 8.15,-117.86 34.35,-154.66 24.19,-33.89 69.72,-62.61 127.49,-57.24 16.55,1.55 33.76,7.18 50.13,11.45 15.71,4.07 33.32,6.59 48.62,12.87 28.5,11.64 167.4,104.27 196.2,117.46 26.6,12.03 54.7,28.07 77.4,45.8 18.2,14.23 37.1,35.38 55.8,51.55 18.4,15.98 41.6,31.76 57.3,48.7 13.4,14.43 22.8,30.93 38.7,45.8 13.7,12.87 29.3,25.49 45.8,38.68 43.3,34.73 63,76.2 110.2,90.23 18.3,5.37 66.7,4.4 71.7,-11.44 3.6,-11.97 -26.5,-42.18 -17.3,-51.56 8.3,-8.41 40.1,10.03 48.8,12.88 18.3,6.07 36.8,13.19 51.5,14.29 158.6,12.29 171.2,-185.32 110.3,-292.11 -6.2,-10.73 -23.2,-22.89 -22.9,-34.41 0.1,-7.82 10.5,-17.33 15.7,-18.56 20.3,-4.92 39.1,17.53 53,31.5 42.4,42.36 79.5,91 116,134.6 51.6,61.58 101.1,121.22 147.5,186.16" /></g></g></svg>